<svg xmlns="http://www.w3.org/2000/svg" xmlns:xlink="http://www.w3.org/1999/xlink" width="400" height="164.33333333333331" viewBox="0, 0, 400,164.33333333333331">
	
<symbol id="a24_films_logo"><path d="M332.183 61.833 L 276.536 123.667 233.257 123.667 C 186.288 123.667,188.714 123.759,186.722 121.901 C 183.895 119.263,184.118 114.470,187.176 112.137 C 190.932 109.272,207.491 103.597,220.167 100.830 C 257.308 92.722,272.059 82.689,277.185 62.050 C 283.258 37.598,271.103 15.399,246.819 6.587 C 224.382 -1.554,195.105 -0.254,177.171 9.682 C 148.065 25.806,144.945 66.341,172.090 75.696 C 198.341 84.743,220.310 54.099,203.401 32.023 C 194.939 20.975,177.183 17.941,166.310 25.683 C 164.719 26.816,164.860 26.299,166.776 23.976 C 176.439 12.263,193.601 5.680,214.500 5.672 C 220.442 5.670,222.718 6.575,224.029 9.461 C 224.869 11.311,225.029 90.051,224.197 92.043 C 222.978 94.960,221.233 96.120,216.431 97.205 C 175.755 106.398,152.905 127.962,151.478 158.500 C 151.384 160.517,151.247 162.654,151.174 163.250 L 151.042 164.333 195.942 164.333 L 240.842 164.333 258.983 144.167 L 277.125 124.000 309.729 124.000 L 342.333 124.000 342.333 144.167 L 342.333 164.333 365.333 164.333 L 388.333 164.333 388.333 144.167 L 388.333 124.000 394.000 124.000 L 399.667 124.000 399.667 121.833 L 399.667 119.667 394.000 119.667 L 388.333 119.667 388.333 59.833 C 388.333 26.925,388.220 0.000,388.082 0.000 C 387.944 0.000,362.789 27.825,332.183 61.833 M68.855 16.102 C 58.802 37.674,59.301 36.749,55.858 40.194 C 52.568 43.487,49.196 45.479,45.200 46.492 C 44.118 46.766,43.198 47.030,43.155 47.078 C 43.113 47.127,44.349 49.891,45.901 53.221 L 48.723 59.276 24.362 111.392 C 10.963 140.056,0.000 163.625,0.000 163.768 C 0.000 163.911,1.131 163.984,2.513 163.931 L 5.025 163.833 13.144 146.500 L 21.262 129.167 51.334 129.167 L 81.405 129.167 89.453 146.578 L 97.500 163.989 122.917 163.994 C 136.896 163.997,148.333 163.906,148.333 163.792 C 148.333 163.496,74.656 5.215,74.388 4.936 C 74.266 4.809,71.776 9.834,68.855 16.102 M341.889 119.222 C 341.826 119.286,329.447 119.299,314.382 119.252 L 286.990 119.167 314.412 88.671 L 341.833 58.175 341.918 88.641 C 341.965 105.398,341.952 119.159,341.889 119.222 M65.993 96.167 C 73.007 111.200,78.819 123.688,78.908 123.917 C 79.038 124.248,73.388 124.333,51.333 124.333 C 29.278 124.333,23.629 124.248,23.758 123.917 C 24.027 123.229,50.364 66.916,50.923 65.833 L 51.439 64.833 52.340 66.833 C 52.835 67.933,58.979 81.133,65.993 96.167 " stroke="none" fill="#000000" fill-rule="evenodd"></path></symbol>

</svg>